<?xml version="1.0" standalone="no"?>
<!DOCTYPE svg PUBLIC "-//W3C//DTD SVG 20010904//EN"
 "http://www.w3.org/TR/2001/REC-SVG-20010904/DTD/svg10.dtd">
<svg version="1.0" xmlns="http://www.w3.org/2000/svg"
 width="256.000000pt" height="256.000000pt" viewBox="0 0 256.000000 256.000000"
 preserveAspectRatio="xMidYMid meet">
<metadata>
Created by potrace 1.11, written by Peter Selinger 2001-2013
</metadata>
<g transform="translate(0.000000,256.000000) scale(0.100000,-0.100000)"
fill="#000000" stroke="none">
<path d="M1059 2504 c-514 -93 -914 -496 -1004 -1011 -19 -110 -19 -316 0
-426 90 -519 493 -922 1012 -1012 110 -19 316 -19 426 0 519 90 922 493 1012
1012 19 110 19 316 0 426 -44 252 -166 488 -345 667 -179 179 -415 301 -667
345 -106 19 -330 18 -434 -1z m397 -79 c222 -38 439 -143 588 -284 52 -50 125
-141 112 -141 -2 0 -48 41 -102 90 -162 151 -328 238 -534 280 -91 19 -127 21
-275 17 -142 -4 -185 -9 -263 -31 -185 -51 -336 -138 -473 -272 -81 -80 -112
-98 -87 -50 20 36 119 135 188 185 127 95 318 174 489 205 103 19 250 19 357
1z m-392 -645 c20 -7 21 -15 21 -201 1 -160 4 -202 18 -240 73 -191 345 -184
397 10 7 27 11 113 9 233 -1 108 2 193 7 198 5 5 75 11 154 12 l145 3 3 -233
c3 -265 -5 -317 -64 -434 -44 -88 -120 -166 -202 -207 -86 -44 -95 -60 -100
-197 l-4 -113 -42 -6 c-22 -3 -86 -5 -141 -3 l-100 3 -6 117 c-7 139 -14 154
-100 199 -135 72 -243 227 -274 392 -15 81 -22 438 -8 472 5 16 19 17 136 10
72 -4 140 -10 151 -15z"/>
</g>
</svg>
